<svg xmlns="http://www.w3.org/2000/svg" viewBox="0 0 500 500">
  <defs>
    <path id="admbPath" d="M100,250 A1,1 0 0,1 400,250 A1,1 0 0,1 100,250"/>
    <path id="outerPath" d="M150,250 A1,1 0 0,1 350,250 A1,1 0 0,1 150,250"/>
    <path id="middlePath" d="M325,250 A1,1 0 0,0 175,250 A1,1 0 0,0 325,250"/>
    <path id="innerPath" d="M250,200 A1,1 0 0,1 250,300 A1,1 0 0,1 250,200"/>
    <path id="lastPath" d="M250,275 A1,1 0 0,0 250,225 A1,1 0 0,0 250,275"/>
  </defs>
  <g fill="#551a8b" style="transform-origin:center">
    <circle cx="250" cy="250" r="125"/>
    <text font-size="73">
      <textPath href="#admbPath">
        Alexander Do McIntosh Broom
      </textPath>
    </text>
    <animateTransform attributeName="transform"
                      attributeType="XML"
                      type="rotate"
                      from="360 0 0"
                      to="0 0 0"
                      dur="10s"
                      repeatCount="indefinite"/>
  </g>
  <g fill="white">
    <circle cx="" cy="" r="10">
      <animateMotion dur="10s" repeatCount="indefinite">
        <mpath href="#outerPath"/>
      </animateMotion>
    </circle>
    <circle cx="" cy="" r="5">
      <animateMotion dur="5s" repeatCount="indefinite">
        <mpath href="#outerPath"/>
      </animateMotion>
    </circle>
    <circle cx="" cy="" r="10">
      <animateMotion dur="8s" repeatCount="indefinite">
        <mpath href="#middlePath"/>
      </animateMotion>
    </circle>
    <circle cx="" cy="" r="5">
      <animateMotion dur="4s" repeatCount="indefinite">
        <mpath href="#middlePath"/>
      </animateMotion>
    </circle>
    <circle cx="" cy="" r="10">
      <animateMotion dur="6s" repeatCount="indefinite">
        <mpath href="#innerPath"/>
      </animateMotion>
    </circle>
    <circle cx="" cy="" r="5">
      <animateMotion dur="3s" repeatCount="indefinite">
        <mpath href="#innerPath"/>
      </animateMotion>
    </circle>
    <circle cx="" cy="" r="10">
      <animateMotion dur="4s" repeatCount="indefinite">
        <mpath href="#lastPath"/>
      </animateMotion>
    </circle>
    <circle cx="" cy="" r="5">
      <animateMotion dur="2s" repeatCount="indefinite">
        <mpath href="#lastPath"/>
      </animateMotion>
    </circle>
  </g>
</svg>
